<mxfile host="app.diagrams.net" agent="Mozilla/5.0 (Windows NT 10.0; Win64; x64) AppleWebKit/537.36 (KHTML, like Gecko) Chrome/135.0.0.0 Safari/537.36 Edg/135.0.0.0" version="26.2.14">
  <diagram name="Page-1" id="WNBqa6FWyOd_pCipYuLc">
    <mxGraphModel dx="1473" dy="1010" grid="1" gridSize="10" guides="1" tooltips="1" connect="1" arrows="1" fold="1" page="1" pageScale="1" pageWidth="1200" pageHeight="2400" math="0" shadow="0">
      <root>
        <mxCell id="0" />
        <mxCell id="1" parent="0" />
        <mxCell id="zTRvoI3KLLLi6bIDWfeQ-5" value="" style="rounded=0;whiteSpace=wrap;html=1;gradientColor=default;fillColor=none;movable=1;resizable=1;rotatable=1;deletable=1;editable=1;locked=0;connectable=1;shadow=0;" parent="1" vertex="1">
          <mxGeometry x="690" y="270" width="100" height="140" as="geometry" />
        </mxCell>
        <mxCell id="zTRvoI3KLLLi6bIDWfeQ-10" value="" style="rounded=0;whiteSpace=wrap;html=1;" parent="1" vertex="1">
          <mxGeometry x="100" y="410" width="120" height="100" as="geometry" />
        </mxCell>
        <mxCell id="zTRvoI3KLLLi6bIDWfeQ-9" value="" style="curved=1;endArrow=classic;html=1;rounded=0;exitX=1;exitY=0.5;exitDx=0;exitDy=0;" parent="1" source="zTRvoI3KLLLi6bIDWfeQ-16" edge="1">
          <mxGeometry width="50" height="50" relative="1" as="geometry">
            <mxPoint x="280.0000000000001" y="240" as="sourcePoint" />
            <mxPoint x="190" y="481.95121951219517" as="targetPoint" />
            <Array as="points">
              <mxPoint x="270" y="250" />
              <mxPoint x="710" y="230" />
              <mxPoint x="750" y="260" />
              <mxPoint x="740" y="480" />
              <mxPoint x="400" y="500" />
              <mxPoint x="330" y="500" />
              <mxPoint x="280" y="500" />
              <mxPoint x="220" y="490" />
            </Array>
          </mxGeometry>
        </mxCell>
        <mxCell id="zTRvoI3KLLLi6bIDWfeQ-12" value="A small obstacle course that challenges the player to jump and slide." style="shape=callout;whiteSpace=wrap;html=1;perimeter=calloutPerimeter;position2=0;" parent="1" vertex="1">
          <mxGeometry x="800" y="240" width="170" height="120" as="geometry" />
        </mxCell>
        <mxCell id="zTRvoI3KLLLi6bIDWfeQ-13" value="" style="ellipse;whiteSpace=wrap;html=1;aspect=fixed;fillColor=#60a917;fontColor=#ffffff;strokeColor=#2D7600;" parent="1" vertex="1">
          <mxGeometry x="500" y="570" width="40" height="40" as="geometry" />
        </mxCell>
        <mxCell id="zTRvoI3KLLLi6bIDWfeQ-14" value="" style="ellipse;whiteSpace=wrap;html=1;aspect=fixed;fillColor=#60a917;fontColor=#ffffff;strokeColor=#2D7600;" parent="1" vertex="1">
          <mxGeometry x="350" y="570" width="40" height="40" as="geometry" />
        </mxCell>
        <mxCell id="zTRvoI3KLLLi6bIDWfeQ-15" value="Two basic enemies" style="text;html=1;align=center;verticalAlign=middle;whiteSpace=wrap;rounded=0;" parent="1" vertex="1">
          <mxGeometry x="390" y="610" width="110" height="20" as="geometry" />
        </mxCell>
        <mxCell id="zTRvoI3KLLLi6bIDWfeQ-16" value="PLAYER" style="ellipse;whiteSpace=wrap;html=1;aspect=fixed;fillColor=#a20025;fontColor=#ffffff;strokeColor=#6F0000;" parent="1" vertex="1">
          <mxGeometry x="120" y="200" width="80" height="80" as="geometry" />
        </mxCell>
        <mxCell id="zTRvoI3KLLLi6bIDWfeQ-18" value="EXIT" style="ellipse;whiteSpace=wrap;html=1;aspect=fixed;fillColor=#6a00ff;fontColor=#ffffff;strokeColor=#3700CC;" parent="1" vertex="1">
          <mxGeometry x="120" y="420" width="80" height="80" as="geometry" />
        </mxCell>
        <mxCell id="-UVeHRwFFb3G7hV3x6fx-47" value="" style="edgeStyle=orthogonalEdgeStyle;rounded=0;orthogonalLoop=1;jettySize=auto;html=1;" parent="1" source="zTRvoI3KLLLi6bIDWfeQ-20" target="-UVeHRwFFb3G7hV3x6fx-46" edge="1">
          <mxGeometry relative="1" as="geometry" />
        </mxCell>
        <mxCell id="zTRvoI3KLLLi6bIDWfeQ-20" value="Player spawns in Level 1" style="rounded=1;whiteSpace=wrap;html=1;" parent="1" vertex="1">
          <mxGeometry x="490" y="720" width="160" height="60" as="geometry" />
        </mxCell>
        <mxCell id="zTRvoI3KLLLi6bIDWfeQ-32" value="Input manager" style="swimlane;fontStyle=0;childLayout=stackLayout;horizontal=1;startSize=26;horizontalStack=0;resizeParent=1;resizeParentMax=0;resizeLast=0;collapsible=1;marginBottom=0;align=center;fontSize=14;" parent="1" vertex="1">
          <mxGeometry x="690" y="890" width="180" height="266" as="geometry">
            <mxRectangle x="790" y="520" width="130" height="30" as="alternateBounds" />
          </mxGeometry>
        </mxCell>
        <mxCell id="zTRvoI3KLLLi6bIDWfeQ-33" value="Space =&amp;gt; Jump" style="text;strokeColor=none;fillColor=none;spacingLeft=4;spacingRight=4;overflow=hidden;rotatable=0;points=[[0,0.5],[1,0.5]];portConstraint=eastwest;fontSize=12;whiteSpace=wrap;html=1;" parent="zTRvoI3KLLLi6bIDWfeQ-32" vertex="1">
          <mxGeometry y="26" width="180" height="30" as="geometry" />
        </mxCell>
        <mxCell id="zTRvoI3KLLLi6bIDWfeQ-34" value="Ctrl =&amp;gt; Crouch/Slide" style="text;strokeColor=none;fillColor=none;spacingLeft=4;spacingRight=4;overflow=hidden;rotatable=0;points=[[0,0.5],[1,0.5]];portConstraint=eastwest;fontSize=12;whiteSpace=wrap;html=1;" parent="zTRvoI3KLLLi6bIDWfeQ-32" vertex="1">
          <mxGeometry y="56" width="180" height="30" as="geometry" />
        </mxCell>
        <mxCell id="zTRvoI3KLLLi6bIDWfeQ-35" value="Left mouse =&amp;gt; Shoot" style="text;strokeColor=none;fillColor=none;spacingLeft=4;spacingRight=4;overflow=hidden;rotatable=0;points=[[0,0.5],[1,0.5]];portConstraint=eastwest;fontSize=12;whiteSpace=wrap;html=1;" parent="zTRvoI3KLLLi6bIDWfeQ-32" vertex="1">
          <mxGeometry y="86" width="180" height="30" as="geometry" />
        </mxCell>
        <mxCell id="zTRvoI3KLLLi6bIDWfeQ-36" value="Right mouse =&amp;gt; Ability" style="text;strokeColor=none;fillColor=none;spacingLeft=4;spacingRight=4;overflow=hidden;rotatable=0;points=[[0,0.5],[1,0.5]];portConstraint=eastwest;fontSize=12;whiteSpace=wrap;html=1;" parent="zTRvoI3KLLLi6bIDWfeQ-32" vertex="1">
          <mxGeometry y="116" width="180" height="30" as="geometry" />
        </mxCell>
        <mxCell id="zTRvoI3KLLLi6bIDWfeQ-37" value="WASD =&amp;gt; Movement" style="text;strokeColor=none;fillColor=none;spacingLeft=4;spacingRight=4;overflow=hidden;rotatable=0;points=[[0,0.5],[1,0.5]];portConstraint=eastwest;fontSize=12;whiteSpace=wrap;html=1;" parent="zTRvoI3KLLLi6bIDWfeQ-32" vertex="1">
          <mxGeometry y="146" width="180" height="30" as="geometry" />
        </mxCell>
        <mxCell id="zTRvoI3KLLLi6bIDWfeQ-39" value="E =&amp;gt; Interact" style="text;strokeColor=none;fillColor=none;spacingLeft=4;spacingRight=4;overflow=hidden;rotatable=0;points=[[0,0.5],[1,0.5]];portConstraint=eastwest;fontSize=12;whiteSpace=wrap;html=1;" parent="zTRvoI3KLLLi6bIDWfeQ-32" vertex="1">
          <mxGeometry y="176" width="180" height="30" as="geometry" />
        </mxCell>
        <mxCell id="zTRvoI3KLLLi6bIDWfeQ-38" value="R =&amp;gt; reload" style="text;strokeColor=none;fillColor=none;spacingLeft=4;spacingRight=4;overflow=hidden;rotatable=0;points=[[0,0.5],[1,0.5]];portConstraint=eastwest;fontSize=12;whiteSpace=wrap;html=1;" parent="zTRvoI3KLLLi6bIDWfeQ-32" vertex="1">
          <mxGeometry y="206" width="180" height="30" as="geometry" />
        </mxCell>
        <mxCell id="-UVeHRwFFb3G7hV3x6fx-55" value="ESC =&amp;gt; pause" style="text;strokeColor=none;fillColor=none;spacingLeft=4;spacingRight=4;overflow=hidden;rotatable=0;points=[[0,0.5],[1,0.5]];portConstraint=eastwest;fontSize=12;whiteSpace=wrap;html=1;" parent="zTRvoI3KLLLi6bIDWfeQ-32" vertex="1">
          <mxGeometry y="236" width="180" height="30" as="geometry" />
        </mxCell>
        <mxCell id="-UVeHRwFFb3G7hV3x6fx-13" value="" style="edgeStyle=orthogonalEdgeStyle;rounded=0;orthogonalLoop=1;jettySize=auto;html=1;" parent="1" source="zTRvoI3KLLLi6bIDWfeQ-40" target="-UVeHRwFFb3G7hV3x6fx-12" edge="1">
          <mxGeometry relative="1" as="geometry" />
        </mxCell>
        <mxCell id="dE-LeP1mxCF8OfB47Rku-4" value="True" style="edgeLabel;html=1;align=center;verticalAlign=middle;resizable=0;points=[];" parent="-UVeHRwFFb3G7hV3x6fx-13" vertex="1" connectable="0">
          <mxGeometry x="-0.5111" y="-1" relative="1" as="geometry">
            <mxPoint as="offset" />
          </mxGeometry>
        </mxCell>
        <mxCell id="zTRvoI3KLLLi6bIDWfeQ-40" value="Did the player Shoot?" style="rhombus;whiteSpace=wrap;html=1;rounded=1;" parent="1" vertex="1">
          <mxGeometry x="500" y="1290" width="140" height="120" as="geometry" />
        </mxCell>
        <mxCell id="zTRvoI3KLLLi6bIDWfeQ-42" value="Apply Physics (gravity)" style="rounded=0;whiteSpace=wrap;html=1;" parent="1" vertex="1">
          <mxGeometry x="30" y="1450" width="120" height="60" as="geometry" />
        </mxCell>
        <mxCell id="zTRvoI3KLLLi6bIDWfeQ-55" value="" style="edgeStyle=orthogonalEdgeStyle;rounded=0;orthogonalLoop=1;jettySize=auto;html=1;" parent="1" source="zTRvoI3KLLLi6bIDWfeQ-43" target="zTRvoI3KLLLi6bIDWfeQ-40" edge="1">
          <mxGeometry relative="1" as="geometry" />
        </mxCell>
        <mxCell id="zTRvoI3KLLLi6bIDWfeQ-56" value="" style="edgeStyle=orthogonalEdgeStyle;rounded=0;orthogonalLoop=1;jettySize=auto;html=1;" parent="1" source="zTRvoI3KLLLi6bIDWfeQ-43" target="zTRvoI3KLLLi6bIDWfeQ-40" edge="1">
          <mxGeometry relative="1" as="geometry" />
        </mxCell>
        <mxCell id="zTRvoI3KLLLi6bIDWfeQ-66" style="edgeStyle=orthogonalEdgeStyle;rounded=0;orthogonalLoop=1;jettySize=auto;html=1;entryX=0.5;entryY=0;entryDx=0;entryDy=0;" parent="1" source="zTRvoI3KLLLi6bIDWfeQ-43" target="zTRvoI3KLLLi6bIDWfeQ-65" edge="1">
          <mxGeometry relative="1" as="geometry">
            <Array as="points">
              <mxPoint x="570" y="1240" />
              <mxPoint x="410" y="1240" />
            </Array>
          </mxGeometry>
        </mxCell>
        <mxCell id="zTRvoI3KLLLi6bIDWfeQ-106" style="edgeStyle=orthogonalEdgeStyle;rounded=0;orthogonalLoop=1;jettySize=auto;html=1;" parent="1" source="zTRvoI3KLLLi6bIDWfeQ-43" target="zTRvoI3KLLLi6bIDWfeQ-93" edge="1">
          <mxGeometry relative="1" as="geometry" />
        </mxCell>
        <mxCell id="-UVeHRwFFb3G7hV3x6fx-5" style="edgeStyle=orthogonalEdgeStyle;rounded=0;orthogonalLoop=1;jettySize=auto;html=1;" parent="1" source="zTRvoI3KLLLi6bIDWfeQ-43" target="-UVeHRwFFb3G7hV3x6fx-4" edge="1">
          <mxGeometry relative="1" as="geometry">
            <Array as="points">
              <mxPoint x="570" y="1240" />
              <mxPoint x="730" y="1240" />
            </Array>
          </mxGeometry>
        </mxCell>
        <mxCell id="-UVeHRwFFb3G7hV3x6fx-20" style="edgeStyle=orthogonalEdgeStyle;rounded=0;orthogonalLoop=1;jettySize=auto;html=1;" parent="1" source="zTRvoI3KLLLi6bIDWfeQ-43" target="-UVeHRwFFb3G7hV3x6fx-19" edge="1">
          <mxGeometry relative="1" as="geometry" />
        </mxCell>
        <mxCell id="-UVeHRwFFb3G7hV3x6fx-49" style="edgeStyle=orthogonalEdgeStyle;rounded=0;orthogonalLoop=1;jettySize=auto;html=1;" parent="1" source="zTRvoI3KLLLi6bIDWfeQ-43" target="-UVeHRwFFb3G7hV3x6fx-34" edge="1">
          <mxGeometry relative="1" as="geometry" />
        </mxCell>
        <mxCell id="dE-LeP1mxCF8OfB47Rku-6" style="edgeStyle=orthogonalEdgeStyle;rounded=0;orthogonalLoop=1;jettySize=auto;html=1;entryX=0.5;entryY=0;entryDx=0;entryDy=0;" parent="1" source="zTRvoI3KLLLi6bIDWfeQ-43" target="dE-LeP1mxCF8OfB47Rku-5" edge="1">
          <mxGeometry relative="1" as="geometry" />
        </mxCell>
        <mxCell id="dE-LeP1mxCF8OfB47Rku-7" style="edgeStyle=orthogonalEdgeStyle;rounded=0;orthogonalLoop=1;jettySize=auto;html=1;entryX=0.5;entryY=0;entryDx=0;entryDy=0;" parent="1" source="zTRvoI3KLLLi6bIDWfeQ-43" target="-UVeHRwFFb3G7hV3x6fx-56" edge="1">
          <mxGeometry relative="1" as="geometry" />
        </mxCell>
        <mxCell id="PCOMoOvTgNtJA-MKl3Vs-4" style="edgeStyle=orthogonalEdgeStyle;rounded=0;orthogonalLoop=1;jettySize=auto;html=1;entryX=0.5;entryY=0;entryDx=0;entryDy=0;" parent="1" source="zTRvoI3KLLLi6bIDWfeQ-43" target="PCOMoOvTgNtJA-MKl3Vs-2" edge="1">
          <mxGeometry relative="1" as="geometry" />
        </mxCell>
        <mxCell id="-Oy4JUIBBOaPgNIeJl-g-1" style="edgeStyle=none;curved=1;rounded=0;orthogonalLoop=1;jettySize=auto;html=1;fontSize=12;startSize=8;endSize=8;entryX=0.5;entryY=0;entryDx=0;entryDy=0;" edge="1" parent="1" source="zTRvoI3KLLLi6bIDWfeQ-43" target="-Oy4JUIBBOaPgNIeJl-g-2">
          <mxGeometry relative="1" as="geometry">
            <mxPoint x="1700" y="1190" as="targetPoint" />
            <Array as="points">
              <mxPoint x="1680" y="1100" />
            </Array>
          </mxGeometry>
        </mxCell>
        <mxCell id="-Oy4JUIBBOaPgNIeJl-g-6" style="edgeStyle=none;curved=1;rounded=0;orthogonalLoop=1;jettySize=auto;html=1;entryX=0.5;entryY=0;entryDx=0;entryDy=0;fontSize=12;startSize=8;endSize=8;" edge="1" parent="1" source="zTRvoI3KLLLi6bIDWfeQ-43" target="-Oy4JUIBBOaPgNIeJl-g-5">
          <mxGeometry relative="1" as="geometry">
            <Array as="points">
              <mxPoint x="1510" y="1010" />
            </Array>
          </mxGeometry>
        </mxCell>
        <mxCell id="zTRvoI3KLLLi6bIDWfeQ-43" value="On update&amp;nbsp;&lt;div&gt;(Treat like it returns to this point when ends)&lt;/div&gt;" style="rounded=0;whiteSpace=wrap;html=1;" parent="1" vertex="1">
          <mxGeometry x="495" y="1160" width="150" height="60" as="geometry" />
        </mxCell>
        <mxCell id="-UVeHRwFFb3G7hV3x6fx-30" value="" style="edgeStyle=orthogonalEdgeStyle;rounded=0;orthogonalLoop=1;jettySize=auto;html=1;" parent="1" source="zTRvoI3KLLLi6bIDWfeQ-44" target="-UVeHRwFFb3G7hV3x6fx-29" edge="1">
          <mxGeometry relative="1" as="geometry" />
        </mxCell>
        <mxCell id="zTRvoI3KLLLi6bIDWfeQ-44" value="Cast a ray in front of player" style="rounded=0;whiteSpace=wrap;html=1;" parent="1" vertex="1">
          <mxGeometry x="510" y="1675" width="120" height="60" as="geometry" />
        </mxCell>
        <mxCell id="zTRvoI3KLLLi6bIDWfeQ-51" value="True" style="edgeStyle=orthogonalEdgeStyle;rounded=0;orthogonalLoop=1;jettySize=auto;html=1;" parent="1" source="zTRvoI3KLLLi6bIDWfeQ-48" target="zTRvoI3KLLLi6bIDWfeQ-50" edge="1">
          <mxGeometry relative="1" as="geometry" />
        </mxCell>
        <mxCell id="zTRvoI3KLLLi6bIDWfeQ-48" value="If hit enemy" style="rhombus;whiteSpace=wrap;html=1;rounded=1;" parent="1" vertex="1">
          <mxGeometry x="505" y="1900" width="130" height="120" as="geometry" />
        </mxCell>
        <mxCell id="-UVeHRwFFb3G7hV3x6fx-3" value="" style="edgeStyle=orthogonalEdgeStyle;rounded=0;orthogonalLoop=1;jettySize=auto;html=1;" parent="1" source="zTRvoI3KLLLi6bIDWfeQ-50" target="zTRvoI3KLLLi6bIDWfeQ-72" edge="1">
          <mxGeometry relative="1" as="geometry" />
        </mxCell>
        <mxCell id="zTRvoI3KLLLi6bIDWfeQ-50" value="Decrease Enemy Hp by the weapon dmg" style="whiteSpace=wrap;html=1;rounded=0;" parent="1" vertex="1">
          <mxGeometry x="510" y="2100" width="120" height="60" as="geometry" />
        </mxCell>
        <mxCell id="zTRvoI3KLLLi6bIDWfeQ-64" value="True" style="edgeStyle=orthogonalEdgeStyle;rounded=0;orthogonalLoop=1;jettySize=auto;html=1;" parent="1" source="zTRvoI3KLLLi6bIDWfeQ-59" target="zTRvoI3KLLLi6bIDWfeQ-63" edge="1">
          <mxGeometry relative="1" as="geometry" />
        </mxCell>
        <mxCell id="zTRvoI3KLLLi6bIDWfeQ-59" value="Is the player near the enemy?" style="rhombus;whiteSpace=wrap;html=1;rounded=1;spacing=10;" parent="1" vertex="1">
          <mxGeometry x="185" y="1710" width="130" height="100" as="geometry" />
        </mxCell>
        <mxCell id="-UVeHRwFFb3G7hV3x6fx-2" value="" style="edgeStyle=orthogonalEdgeStyle;rounded=0;orthogonalLoop=1;jettySize=auto;html=1;" parent="1" source="zTRvoI3KLLLi6bIDWfeQ-63" target="zTRvoI3KLLLi6bIDWfeQ-78" edge="1">
          <mxGeometry relative="1" as="geometry" />
        </mxCell>
        <mxCell id="zTRvoI3KLLLi6bIDWfeQ-63" value="Decrease player hp by enemy dmg" style="rounded=0;whiteSpace=wrap;html=1;" parent="1" vertex="1">
          <mxGeometry x="190" y="1870" width="120" height="60" as="geometry" />
        </mxCell>
        <mxCell id="zTRvoI3KLLLi6bIDWfeQ-71" value="True" style="edgeStyle=orthogonalEdgeStyle;rounded=0;orthogonalLoop=1;jettySize=auto;html=1;" parent="1" source="zTRvoI3KLLLi6bIDWfeQ-65" target="zTRvoI3KLLLi6bIDWfeQ-70" edge="1">
          <mxGeometry relative="1" as="geometry" />
        </mxCell>
        <mxCell id="zTRvoI3KLLLi6bIDWfeQ-65" value="Did the player enter the Exit?" style="rhombus;whiteSpace=wrap;html=1;rounded=1;spacingLeft=10;spacingRight=10;" parent="1" vertex="1">
          <mxGeometry x="340" y="1290" width="140" height="120" as="geometry" />
        </mxCell>
        <mxCell id="zTRvoI3KLLLi6bIDWfeQ-70" value="Exit level and proceed to next." style="whiteSpace=wrap;html=1;rounded=1;spacingLeft=10;spacingRight=10;" parent="1" vertex="1">
          <mxGeometry x="350" y="1450" width="120" height="60" as="geometry" />
        </mxCell>
        <mxCell id="zTRvoI3KLLLi6bIDWfeQ-75" value="True" style="edgeStyle=orthogonalEdgeStyle;rounded=0;orthogonalLoop=1;jettySize=auto;html=1;" parent="1" source="zTRvoI3KLLLi6bIDWfeQ-72" target="zTRvoI3KLLLi6bIDWfeQ-74" edge="1">
          <mxGeometry relative="1" as="geometry" />
        </mxCell>
        <mxCell id="zTRvoI3KLLLi6bIDWfeQ-72" value="Did an enemy die?" style="rhombus;whiteSpace=wrap;html=1;rounded=1;" parent="1" vertex="1">
          <mxGeometry x="500" y="2180" width="140" height="120" as="geometry" />
        </mxCell>
        <mxCell id="zTRvoI3KLLLi6bIDWfeQ-77" value="" style="edgeStyle=orthogonalEdgeStyle;rounded=0;orthogonalLoop=1;jettySize=auto;html=1;" parent="1" source="zTRvoI3KLLLi6bIDWfeQ-74" target="zTRvoI3KLLLi6bIDWfeQ-76" edge="1">
          <mxGeometry relative="1" as="geometry" />
        </mxCell>
        <mxCell id="zTRvoI3KLLLi6bIDWfeQ-74" value="Destroy Enemy" style="whiteSpace=wrap;html=1;rounded=0;" parent="1" vertex="1">
          <mxGeometry x="510" y="2350" width="120" height="40" as="geometry" />
        </mxCell>
        <mxCell id="zTRvoI3KLLLi6bIDWfeQ-76" value="Give Player money" style="whiteSpace=wrap;html=1;rounded=0;" parent="1" vertex="1">
          <mxGeometry x="510" y="2410" width="120" height="60" as="geometry" />
        </mxCell>
        <mxCell id="zTRvoI3KLLLi6bIDWfeQ-81" value="True" style="edgeStyle=orthogonalEdgeStyle;rounded=0;orthogonalLoop=1;jettySize=auto;html=1;" parent="1" source="zTRvoI3KLLLi6bIDWfeQ-78" target="zTRvoI3KLLLi6bIDWfeQ-79" edge="1">
          <mxGeometry relative="1" as="geometry" />
        </mxCell>
        <mxCell id="zTRvoI3KLLLi6bIDWfeQ-78" value="Did the player die?" style="rhombus;whiteSpace=wrap;html=1;rounded=1;" parent="1" vertex="1">
          <mxGeometry x="180" y="1950" width="140" height="120" as="geometry" />
        </mxCell>
        <mxCell id="zTRvoI3KLLLi6bIDWfeQ-82" value="" style="edgeStyle=orthogonalEdgeStyle;rounded=0;orthogonalLoop=1;jettySize=auto;html=1;" parent="1" source="zTRvoI3KLLLi6bIDWfeQ-79" target="zTRvoI3KLLLi6bIDWfeQ-80" edge="1">
          <mxGeometry relative="1" as="geometry" />
        </mxCell>
        <mxCell id="zTRvoI3KLLLi6bIDWfeQ-79" value="Pause time" style="whiteSpace=wrap;html=1;rounded=0;" parent="1" vertex="1">
          <mxGeometry x="190" y="2120" width="120" height="40" as="geometry" />
        </mxCell>
        <mxCell id="zTRvoI3KLLLi6bIDWfeQ-87" value="" style="edgeStyle=orthogonalEdgeStyle;rounded=0;orthogonalLoop=1;jettySize=auto;html=1;" parent="1" source="zTRvoI3KLLLi6bIDWfeQ-80" target="zTRvoI3KLLLi6bIDWfeQ-86" edge="1">
          <mxGeometry relative="1" as="geometry" />
        </mxCell>
        <mxCell id="zTRvoI3KLLLi6bIDWfeQ-80" value="Draw Game over Screen" style="whiteSpace=wrap;html=1;rounded=0;" parent="1" vertex="1">
          <mxGeometry x="190" y="2190" width="120" height="60" as="geometry" />
        </mxCell>
        <mxCell id="zTRvoI3KLLLi6bIDWfeQ-89" value="True" style="edgeStyle=orthogonalEdgeStyle;rounded=0;orthogonalLoop=1;jettySize=auto;html=1;" parent="1" source="zTRvoI3KLLLi6bIDWfeQ-86" target="zTRvoI3KLLLi6bIDWfeQ-88" edge="1">
          <mxGeometry relative="1" as="geometry" />
        </mxCell>
        <mxCell id="zTRvoI3KLLLi6bIDWfeQ-86" value="Resart?" style="rhombus;whiteSpace=wrap;html=1;rounded=1;" parent="1" vertex="1">
          <mxGeometry x="210" y="2280" width="80" height="80" as="geometry" />
        </mxCell>
        <mxCell id="zTRvoI3KLLLi6bIDWfeQ-88" value="Resart" style="whiteSpace=wrap;html=1;rounded=0;" parent="1" vertex="1">
          <mxGeometry x="210" y="2390" width="80" height="30" as="geometry" />
        </mxCell>
        <mxCell id="zTRvoI3KLLLi6bIDWfeQ-98" value="True" style="edgeStyle=orthogonalEdgeStyle;rounded=0;orthogonalLoop=1;jettySize=auto;html=1;" parent="1" source="zTRvoI3KLLLi6bIDWfeQ-93" target="zTRvoI3KLLLi6bIDWfeQ-97" edge="1">
          <mxGeometry relative="1" as="geometry" />
        </mxCell>
        <mxCell id="zTRvoI3KLLLi6bIDWfeQ-93" value="Is player near an Enemy?" style="rhombus;whiteSpace=wrap;html=1;rounded=1;spacingLeft=10;spacingRight=10;" parent="1" vertex="1">
          <mxGeometry x="180" y="1290" width="140" height="120" as="geometry" />
        </mxCell>
        <mxCell id="zTRvoI3KLLLi6bIDWfeQ-103" value="" style="edgeStyle=orthogonalEdgeStyle;rounded=0;orthogonalLoop=1;jettySize=auto;html=1;" parent="1" source="zTRvoI3KLLLi6bIDWfeQ-97" target="zTRvoI3KLLLi6bIDWfeQ-102" edge="1">
          <mxGeometry relative="1" as="geometry" />
        </mxCell>
        <mxCell id="zTRvoI3KLLLi6bIDWfeQ-97" value="Calculate path and move" style="whiteSpace=wrap;html=1;rounded=0;" parent="1" vertex="1">
          <mxGeometry x="200" y="1450" width="100" height="60" as="geometry" />
        </mxCell>
        <mxCell id="zTRvoI3KLLLi6bIDWfeQ-105" value="True" style="edgeStyle=orthogonalEdgeStyle;rounded=0;orthogonalLoop=1;jettySize=auto;html=1;" parent="1" source="zTRvoI3KLLLi6bIDWfeQ-102" target="zTRvoI3KLLLi6bIDWfeQ-104" edge="1">
          <mxGeometry relative="1" as="geometry" />
        </mxCell>
        <mxCell id="zTRvoI3KLLLi6bIDWfeQ-102" value="Close enough?" style="rhombus;whiteSpace=wrap;html=1;rounded=1;" parent="1" vertex="1">
          <mxGeometry x="210" y="1540" width="80" height="80" as="geometry" />
        </mxCell>
        <mxCell id="-UVeHRwFFb3G7hV3x6fx-1" value="" style="edgeStyle=orthogonalEdgeStyle;rounded=0;orthogonalLoop=1;jettySize=auto;html=1;" parent="1" source="zTRvoI3KLLLi6bIDWfeQ-104" target="zTRvoI3KLLLi6bIDWfeQ-59" edge="1">
          <mxGeometry relative="1" as="geometry" />
        </mxCell>
        <mxCell id="zTRvoI3KLLLi6bIDWfeQ-104" value="Attack" style="whiteSpace=wrap;html=1;rounded=0;" parent="1" vertex="1">
          <mxGeometry x="210" y="1660" width="80" height="30" as="geometry" />
        </mxCell>
        <mxCell id="zTRvoI3KLLLi6bIDWfeQ-110" value="Level 1 Tutorial" style="text;strokeColor=none;fillColor=none;html=1;fontSize=24;fontStyle=1;verticalAlign=middle;align=center;" parent="1" vertex="1">
          <mxGeometry y="20" width="230" height="80" as="geometry" />
        </mxCell>
        <mxCell id="-UVeHRwFFb3G7hV3x6fx-9" value="True" style="edgeStyle=orthogonalEdgeStyle;rounded=0;orthogonalLoop=1;jettySize=auto;html=1;" parent="1" source="-UVeHRwFFb3G7hV3x6fx-4" target="-UVeHRwFFb3G7hV3x6fx-8" edge="1">
          <mxGeometry relative="1" as="geometry" />
        </mxCell>
        <mxCell id="-UVeHRwFFb3G7hV3x6fx-4" value="Did the player reload?" style="rhombus;whiteSpace=wrap;html=1;rounded=1;" parent="1" vertex="1">
          <mxGeometry x="660" y="1290" width="140" height="120" as="geometry" />
        </mxCell>
        <mxCell id="-UVeHRwFFb3G7hV3x6fx-11" value="False" style="edgeStyle=orthogonalEdgeStyle;rounded=0;orthogonalLoop=1;jettySize=auto;html=1;" parent="1" source="-UVeHRwFFb3G7hV3x6fx-8" target="-UVeHRwFFb3G7hV3x6fx-10" edge="1">
          <mxGeometry relative="1" as="geometry" />
        </mxCell>
        <mxCell id="-UVeHRwFFb3G7hV3x6fx-8" value="Is ammo full" style="rhombus;whiteSpace=wrap;html=1;rounded=1;" parent="1" vertex="1">
          <mxGeometry x="690" y="1450" width="80" height="80" as="geometry" />
        </mxCell>
        <mxCell id="-UVeHRwFFb3G7hV3x6fx-17" value="" style="edgeStyle=orthogonalEdgeStyle;rounded=0;orthogonalLoop=1;jettySize=auto;html=1;" parent="1" source="-UVeHRwFFb3G7hV3x6fx-10" target="-UVeHRwFFb3G7hV3x6fx-16" edge="1">
          <mxGeometry relative="1" as="geometry" />
        </mxCell>
        <mxCell id="-UVeHRwFFb3G7hV3x6fx-10" value="Play reload animation" style="whiteSpace=wrap;html=1;rounded=0;" parent="1" vertex="1">
          <mxGeometry x="670" y="1580" width="120" height="60" as="geometry" />
        </mxCell>
        <mxCell id="-UVeHRwFFb3G7hV3x6fx-15" value="True" style="edgeStyle=orthogonalEdgeStyle;rounded=0;orthogonalLoop=1;jettySize=auto;html=1;" parent="1" source="-UVeHRwFFb3G7hV3x6fx-12" target="zTRvoI3KLLLi6bIDWfeQ-44" edge="1">
          <mxGeometry relative="1" as="geometry" />
        </mxCell>
        <mxCell id="-UVeHRwFFb3G7hV3x6fx-28" value="" style="edgeStyle=orthogonalEdgeStyle;rounded=0;orthogonalLoop=1;jettySize=auto;html=1;" parent="1" source="-UVeHRwFFb3G7hV3x6fx-12" target="-UVeHRwFFb3G7hV3x6fx-27" edge="1">
          <mxGeometry relative="1" as="geometry" />
        </mxCell>
        <mxCell id="-UVeHRwFFb3G7hV3x6fx-71" value="False" style="edgeLabel;html=1;align=center;verticalAlign=middle;resizable=0;points=[];" parent="-UVeHRwFFb3G7hV3x6fx-28" vertex="1" connectable="0">
          <mxGeometry x="-0.4304" y="1" relative="1" as="geometry">
            <mxPoint as="offset" />
          </mxGeometry>
        </mxCell>
        <mxCell id="-UVeHRwFFb3G7hV3x6fx-12" value="Is there ammo?" style="rhombus;whiteSpace=wrap;html=1;rounded=1;" parent="1" vertex="1">
          <mxGeometry x="510" y="1500" width="120" height="100" as="geometry" />
        </mxCell>
        <mxCell id="-UVeHRwFFb3G7hV3x6fx-16" value="Replenish ammo" style="whiteSpace=wrap;html=1;rounded=0;" parent="1" vertex="1">
          <mxGeometry x="670" y="1680" width="120" height="60" as="geometry" />
        </mxCell>
        <mxCell id="-UVeHRwFFb3G7hV3x6fx-22" value="True" style="edgeStyle=orthogonalEdgeStyle;rounded=0;orthogonalLoop=1;jettySize=auto;html=1;" parent="1" source="-UVeHRwFFb3G7hV3x6fx-19" target="-UVeHRwFFb3G7hV3x6fx-21" edge="1">
          <mxGeometry relative="1" as="geometry" />
        </mxCell>
        <mxCell id="-UVeHRwFFb3G7hV3x6fx-19" value="Did the player Jump?" style="rhombus;whiteSpace=wrap;html=1;rounded=1;" parent="1" vertex="1">
          <mxGeometry x="820" y="1290" width="140" height="120" as="geometry" />
        </mxCell>
        <mxCell id="-UVeHRwFFb3G7hV3x6fx-24" value="True" style="edgeStyle=orthogonalEdgeStyle;rounded=0;orthogonalLoop=1;jettySize=auto;html=1;" parent="1" source="-UVeHRwFFb3G7hV3x6fx-21" target="-UVeHRwFFb3G7hV3x6fx-23" edge="1">
          <mxGeometry relative="1" as="geometry" />
        </mxCell>
        <mxCell id="-UVeHRwFFb3G7hV3x6fx-21" value="Is player grounded?" style="rhombus;whiteSpace=wrap;html=1;rounded=1;" parent="1" vertex="1">
          <mxGeometry x="845" y="1445" width="90" height="90" as="geometry" />
        </mxCell>
        <mxCell id="-UVeHRwFFb3G7hV3x6fx-26" value="" style="edgeStyle=orthogonalEdgeStyle;rounded=0;orthogonalLoop=1;jettySize=auto;html=1;" parent="1" source="-UVeHRwFFb3G7hV3x6fx-23" target="-UVeHRwFFb3G7hV3x6fx-25" edge="1">
          <mxGeometry relative="1" as="geometry" />
        </mxCell>
        <mxCell id="-UVeHRwFFb3G7hV3x6fx-23" value="Change Grounded to false" style="whiteSpace=wrap;html=1;rounded=0;" parent="1" vertex="1">
          <mxGeometry x="830" y="1580" width="120" height="60" as="geometry" />
        </mxCell>
        <mxCell id="-UVeHRwFFb3G7hV3x6fx-25" value="Change vertical velocity." style="whiteSpace=wrap;html=1;rounded=0;" parent="1" vertex="1">
          <mxGeometry x="830" y="1675" width="120" height="60" as="geometry" />
        </mxCell>
        <mxCell id="-UVeHRwFFb3G7hV3x6fx-27" value="Play empty gun animation" style="whiteSpace=wrap;html=1;rounded=0;" parent="1" vertex="1">
          <mxGeometry x="350" y="1630" width="120" height="60" as="geometry" />
        </mxCell>
        <mxCell id="-UVeHRwFFb3G7hV3x6fx-31" value="" style="edgeStyle=orthogonalEdgeStyle;rounded=0;orthogonalLoop=1;jettySize=auto;html=1;" parent="1" source="-UVeHRwFFb3G7hV3x6fx-29" target="zTRvoI3KLLLi6bIDWfeQ-48" edge="1">
          <mxGeometry relative="1" as="geometry" />
        </mxCell>
        <mxCell id="-UVeHRwFFb3G7hV3x6fx-29" value="Play shoot animation" style="whiteSpace=wrap;html=1;rounded=0;" parent="1" vertex="1">
          <mxGeometry x="510" y="1770" width="120" height="60" as="geometry" />
        </mxCell>
        <mxCell id="-UVeHRwFFb3G7hV3x6fx-38" style="edgeStyle=orthogonalEdgeStyle;rounded=0;orthogonalLoop=1;jettySize=auto;html=1;" parent="1" source="-UVeHRwFFb3G7hV3x6fx-34" target="zTRvoI3KLLLi6bIDWfeQ-42" edge="1">
          <mxGeometry relative="1" as="geometry" />
        </mxCell>
        <mxCell id="-UVeHRwFFb3G7hV3x6fx-41" value="False" style="edgeLabel;html=1;align=center;verticalAlign=middle;resizable=0;points=[];" parent="-UVeHRwFFb3G7hV3x6fx-38" vertex="1" connectable="0">
          <mxGeometry x="-0.1019" relative="1" as="geometry">
            <mxPoint as="offset" />
          </mxGeometry>
        </mxCell>
        <mxCell id="-UVeHRwFFb3G7hV3x6fx-34" value="Is grounded?" style="rhombus;whiteSpace=wrap;html=1;rounded=1;" parent="1" vertex="1">
          <mxGeometry x="20" y="1290" width="140" height="120" as="geometry" />
        </mxCell>
        <mxCell id="-UVeHRwFFb3G7hV3x6fx-51" value="" style="edgeStyle=orthogonalEdgeStyle;rounded=0;orthogonalLoop=1;jettySize=auto;html=1;" parent="1" source="-UVeHRwFFb3G7hV3x6fx-46" target="-UVeHRwFFb3G7hV3x6fx-50" edge="1">
          <mxGeometry relative="1" as="geometry" />
        </mxCell>
        <mxCell id="-UVeHRwFFb3G7hV3x6fx-46" value="Get Level Walls through Separate file." style="rounded=0;whiteSpace=wrap;html=1;" parent="1" vertex="1">
          <mxGeometry x="510" y="820" width="120" height="60" as="geometry" />
        </mxCell>
        <mxCell id="-UVeHRwFFb3G7hV3x6fx-53" value="" style="edgeStyle=orthogonalEdgeStyle;rounded=0;orthogonalLoop=1;jettySize=auto;html=1;" parent="1" source="-UVeHRwFFb3G7hV3x6fx-50" target="-UVeHRwFFb3G7hV3x6fx-52" edge="1">
          <mxGeometry relative="1" as="geometry" />
        </mxCell>
        <mxCell id="-UVeHRwFFb3G7hV3x6fx-50" value="Supply ammo" style="whiteSpace=wrap;html=1;rounded=0;" parent="1" vertex="1">
          <mxGeometry x="510" y="930" width="120" height="60" as="geometry" />
        </mxCell>
        <mxCell id="-UVeHRwFFb3G7hV3x6fx-54" style="edgeStyle=orthogonalEdgeStyle;rounded=0;orthogonalLoop=1;jettySize=auto;html=1;entryX=0.5;entryY=0;entryDx=0;entryDy=0;" parent="1" source="-UVeHRwFFb3G7hV3x6fx-52" target="zTRvoI3KLLLi6bIDWfeQ-43" edge="1">
          <mxGeometry relative="1" as="geometry" />
        </mxCell>
        <mxCell id="-UVeHRwFFb3G7hV3x6fx-52" value="Set up texture maps" style="whiteSpace=wrap;html=1;rounded=0;" parent="1" vertex="1">
          <mxGeometry x="510" y="1020" width="120" height="60" as="geometry" />
        </mxCell>
        <mxCell id="-UVeHRwFFb3G7hV3x6fx-63" value="True" style="edgeStyle=orthogonalEdgeStyle;rounded=0;orthogonalLoop=1;jettySize=auto;html=1;" parent="1" source="-UVeHRwFFb3G7hV3x6fx-56" target="-UVeHRwFFb3G7hV3x6fx-62" edge="1">
          <mxGeometry relative="1" as="geometry" />
        </mxCell>
        <mxCell id="-UVeHRwFFb3G7hV3x6fx-56" value="Did the player press ESC" style="rhombus;whiteSpace=wrap;html=1;rounded=1;spacingRight=10;spacingLeft=10;" parent="1" vertex="1">
          <mxGeometry x="970" y="1290" width="140" height="120" as="geometry" />
        </mxCell>
        <mxCell id="-UVeHRwFFb3G7hV3x6fx-61" value="" style="edgeStyle=orthogonalEdgeStyle;rounded=0;orthogonalLoop=1;jettySize=auto;html=1;" parent="1" source="-UVeHRwFFb3G7hV3x6fx-58" target="-UVeHRwFFb3G7hV3x6fx-60" edge="1">
          <mxGeometry relative="1" as="geometry" />
        </mxCell>
        <mxCell id="-UVeHRwFFb3G7hV3x6fx-58" value="Tint screen" style="whiteSpace=wrap;html=1;rounded=0;spacingRight=10;spacingLeft=10;" parent="1" vertex="1">
          <mxGeometry x="995" y="1600" width="90" height="40" as="geometry" />
        </mxCell>
        <mxCell id="-UVeHRwFFb3G7hV3x6fx-60" value="Pause time" style="whiteSpace=wrap;html=1;rounded=0;spacingRight=10;spacingLeft=10;" parent="1" vertex="1">
          <mxGeometry x="980" y="1675" width="120" height="60" as="geometry" />
        </mxCell>
        <mxCell id="-UVeHRwFFb3G7hV3x6fx-64" value="" style="edgeStyle=orthogonalEdgeStyle;rounded=0;orthogonalLoop=1;jettySize=auto;html=1;" parent="1" source="-UVeHRwFFb3G7hV3x6fx-62" target="-UVeHRwFFb3G7hV3x6fx-58" edge="1">
          <mxGeometry relative="1" as="geometry" />
        </mxCell>
        <mxCell id="-UVeHRwFFb3G7hV3x6fx-65" value="False" style="edgeLabel;html=1;align=center;verticalAlign=middle;resizable=0;points=[];" parent="-UVeHRwFFb3G7hV3x6fx-64" vertex="1" connectable="0">
          <mxGeometry x="-0.0134" y="1" relative="1" as="geometry">
            <mxPoint as="offset" />
          </mxGeometry>
        </mxCell>
        <mxCell id="-UVeHRwFFb3G7hV3x6fx-67" value="" style="edgeStyle=orthogonalEdgeStyle;rounded=0;orthogonalLoop=1;jettySize=auto;html=1;" parent="1" source="-UVeHRwFFb3G7hV3x6fx-62" target="-UVeHRwFFb3G7hV3x6fx-66" edge="1">
          <mxGeometry relative="1" as="geometry">
            <Array as="points">
              <mxPoint x="1160" y="1490" />
              <mxPoint x="1160" y="1800" />
            </Array>
          </mxGeometry>
        </mxCell>
        <mxCell id="-UVeHRwFFb3G7hV3x6fx-68" value="True" style="edgeLabel;html=1;align=center;verticalAlign=middle;resizable=0;points=[];" parent="-UVeHRwFFb3G7hV3x6fx-67" vertex="1" connectable="0">
          <mxGeometry x="-0.0744" y="3" relative="1" as="geometry">
            <mxPoint as="offset" />
          </mxGeometry>
        </mxCell>
        <mxCell id="-UVeHRwFFb3G7hV3x6fx-62" value="Is it currently paused?" style="rhombus;whiteSpace=wrap;html=1;rounded=1;spacingRight=10;spacingLeft=10;" parent="1" vertex="1">
          <mxGeometry x="985" y="1445" width="110" height="90" as="geometry" />
        </mxCell>
        <mxCell id="-UVeHRwFFb3G7hV3x6fx-70" value="" style="edgeStyle=orthogonalEdgeStyle;rounded=0;orthogonalLoop=1;jettySize=auto;html=1;" parent="1" source="-UVeHRwFFb3G7hV3x6fx-66" target="-UVeHRwFFb3G7hV3x6fx-69" edge="1">
          <mxGeometry relative="1" as="geometry" />
        </mxCell>
        <mxCell id="-UVeHRwFFb3G7hV3x6fx-66" value="Untint screen" style="whiteSpace=wrap;html=1;rounded=0;spacingRight=10;spacingLeft=10;" parent="1" vertex="1">
          <mxGeometry x="980" y="1770" width="120" height="60" as="geometry" />
        </mxCell>
        <mxCell id="-UVeHRwFFb3G7hV3x6fx-69" value="Un pause time" style="whiteSpace=wrap;html=1;rounded=0;spacingRight=10;spacingLeft=10;" parent="1" vertex="1">
          <mxGeometry x="980" y="1860" width="120" height="60" as="geometry" />
        </mxCell>
        <mxCell id="-UVeHRwFFb3G7hV3x6fx-75" value="&lt;span style=&quot;color: rgb(0, 0, 0); font-family: &amp;quot;Times New Roman&amp;quot;; font-size: medium;&quot;&gt;After you fill out the Description.docx file, draw a representation of each screen for your game using draw.io. You will have 6 game play screens/levels and create a flowchart for each of the 6 screens/levels. Save the drawing and flowchart for each screen separately in your Algorithm folder. By the end you will have a Screen1.drawio, Screen2.drawio, Screen3.drawio …up to Screen6.drawio. These do not include splash/welcome/game over/store screens. The six screens/levels that we are planning here are game play only. Note: your finished game should also have instructions &amp;amp; game over screens but we won’t be detailing them here.&lt;/span&gt;" style="rounded=0;whiteSpace=wrap;html=1;align=left;verticalAlign=top;spacingBottom=10;spacingLeft=10;spacingRight=10;spacingTop=10;" parent="1" vertex="1">
          <mxGeometry x="40" y="820" width="390" height="280" as="geometry" />
        </mxCell>
        <mxCell id="dE-LeP1mxCF8OfB47Rku-11" value="True" style="edgeStyle=orthogonalEdgeStyle;rounded=0;orthogonalLoop=1;jettySize=auto;html=1;" parent="1" source="dE-LeP1mxCF8OfB47Rku-5" target="dE-LeP1mxCF8OfB47Rku-10" edge="1">
          <mxGeometry relative="1" as="geometry" />
        </mxCell>
        <mxCell id="dE-LeP1mxCF8OfB47Rku-5" value="Did the player press CTRL" style="rhombus;whiteSpace=wrap;html=1;rounded=1;spacingRight=10;spacingLeft=10;" parent="1" vertex="1">
          <mxGeometry x="1200" y="1290" width="140" height="120" as="geometry" />
        </mxCell>
        <mxCell id="dE-LeP1mxCF8OfB47Rku-13" value="" style="edgeStyle=orthogonalEdgeStyle;rounded=0;orthogonalLoop=1;jettySize=auto;html=1;" parent="1" source="dE-LeP1mxCF8OfB47Rku-10" target="dE-LeP1mxCF8OfB47Rku-12" edge="1">
          <mxGeometry relative="1" as="geometry" />
        </mxCell>
        <mxCell id="dE-LeP1mxCF8OfB47Rku-10" value="Get direction (forward)" style="whiteSpace=wrap;html=1;rounded=0;spacingRight=10;spacingLeft=10;" parent="1" vertex="1">
          <mxGeometry x="1210" y="1450" width="120" height="60" as="geometry" />
        </mxCell>
        <mxCell id="dE-LeP1mxCF8OfB47Rku-12" value="Add vector to player position." style="whiteSpace=wrap;html=1;rounded=0;spacingRight=10;spacingLeft=10;" parent="1" vertex="1">
          <mxGeometry x="1210" y="1550" width="120" height="60" as="geometry" />
        </mxCell>
        <mxCell id="dE-LeP1mxCF8OfB47Rku-15" value="" style="rounded=0;whiteSpace=wrap;html=1;" parent="1" vertex="1">
          <mxGeometry x="880" y="470" width="535" height="310" as="geometry" />
        </mxCell>
        <mxCell id="dE-LeP1mxCF8OfB47Rku-32" value="" style="rounded=0;whiteSpace=wrap;html=1;" parent="1" vertex="1">
          <mxGeometry x="1070" y="585" width="150" height="57.5" as="geometry" />
        </mxCell>
        <mxCell id="dE-LeP1mxCF8OfB47Rku-25" value="" style="rounded=0;whiteSpace=wrap;html=1;" parent="1" vertex="1">
          <mxGeometry x="880" y="535" width="140" height="150" as="geometry" />
        </mxCell>
        <mxCell id="dE-LeP1mxCF8OfB47Rku-28" value="" style="shape=trapezoid;perimeter=trapezoidPerimeter;whiteSpace=wrap;html=1;fixedSize=1;rotation=90;size=45;" parent="1" vertex="1">
          <mxGeometry x="973.75" y="583.75" width="147.5" height="55" as="geometry" />
        </mxCell>
        <mxCell id="dE-LeP1mxCF8OfB47Rku-29" value="" style="rounded=0;whiteSpace=wrap;html=1;" parent="1" vertex="1">
          <mxGeometry x="1275" y="535" width="140" height="150" as="geometry" />
        </mxCell>
        <mxCell id="dE-LeP1mxCF8OfB47Rku-30" value="" style="shape=trapezoid;perimeter=trapezoidPerimeter;whiteSpace=wrap;html=1;fixedSize=1;rotation=-90;size=45;" parent="1" vertex="1">
          <mxGeometry x="1171.25" y="581.25" width="150" height="57.5" as="geometry" />
        </mxCell>
        <mxCell id="dE-LeP1mxCF8OfB47Rku-21" value="" style="shape=cube;whiteSpace=wrap;html=1;boundedLbl=1;backgroundOutline=1;darkOpacity=0.05;darkOpacity2=0.1;size=40;rotation=-15;" parent="1" vertex="1">
          <mxGeometry x="1321.29" y="699.83" width="85" height="90" as="geometry" />
        </mxCell>
        <mxCell id="dE-LeP1mxCF8OfB47Rku-34" value="User interface:" style="text;strokeColor=none;fillColor=none;html=1;fontSize=24;fontStyle=1;verticalAlign=middle;align=center;" parent="1" vertex="1">
          <mxGeometry x="880" y="420" width="230" height="50" as="geometry" />
        </mxCell>
        <mxCell id="dE-LeP1mxCF8OfB47Rku-35" value="&lt;b&gt;&lt;i&gt;&lt;font style=&quot;font-size: 15px;&quot;&gt;&lt;font style=&quot;color: light-dark(rgb(0, 0, 0), rgb(0, 204, 0));&quot;&gt;M: 12&lt;/font&gt;&lt;span style=&quot;white-space: pre;&quot;&gt;&#x9;&lt;/span&gt;HP: {&lt;font style=&quot;color: light-dark(rgb(0, 0, 0), rgb(255, 7, 7));&quot;&gt;||||||||||&amp;nbsp;&lt;/font&gt; &amp;nbsp; &amp;nbsp; &amp;nbsp; &amp;nbsp;}&amp;nbsp; &amp;nbsp;&lt;font style=&quot;color: light-dark(rgb(0, 0, 0), rgb(255, 141, 28));&quot;&gt;4/5&lt;/font&gt;&lt;/font&gt;&lt;/i&gt;&lt;/b&gt;" style="rounded=0;whiteSpace=wrap;html=1;align=left;spacing=0;spacingLeft=10;" parent="1" vertex="1">
          <mxGeometry x="881.25" y="755" width="240" height="25" as="geometry" />
        </mxCell>
        <mxCell id="dE-LeP1mxCF8OfB47Rku-20" value="" style="shape=cube;whiteSpace=wrap;html=1;boundedLbl=1;backgroundOutline=1;darkOpacity=0.05;darkOpacity2=0.1;size=90;rotation=-15;" parent="1" vertex="1">
          <mxGeometry x="1261.29" y="639.83" width="115" height="110" as="geometry" />
        </mxCell>
        <mxCell id="dE-LeP1mxCF8OfB47Rku-36" value="" style="rhombus;whiteSpace=wrap;html=1;" parent="1" vertex="1">
          <mxGeometry x="1142.5" y="620" width="10" height="10" as="geometry" />
        </mxCell>
        <mxCell id="dE-LeP1mxCF8OfB47Rku-38" value="Enemy!" style="shape=umlActor;verticalLabelPosition=bottom;verticalAlign=top;html=1;outlineConnect=0;" parent="1" vertex="1">
          <mxGeometry x="1100" y="595" width="30" height="60" as="geometry" />
        </mxCell>
        <mxCell id="dE-LeP1mxCF8OfB47Rku-40" value="? Future secret?&lt;div&gt;Need explosives?&lt;/div&gt;&lt;div&gt;cracked wall?&lt;/div&gt;" style="rounded=0;whiteSpace=wrap;html=1;fillColor=#0050ef;fontColor=#ffffff;strokeColor=#001DBC;" parent="1" vertex="1">
          <mxGeometry x="560" y="270" width="130" height="140" as="geometry" />
        </mxCell>
        <mxCell id="dE-LeP1mxCF8OfB47Rku-45" value="Money, Hit points, and ammo." style="rounded=0;whiteSpace=wrap;html=1;align=left;" parent="1" vertex="1">
          <mxGeometry x="881" y="790" width="239" height="60" as="geometry" />
        </mxCell>
        <mxCell id="dE-LeP1mxCF8OfB47Rku-46" value="Weapon animations and image." style="rounded=0;whiteSpace=wrap;html=1;align=left;" parent="1" vertex="1">
          <mxGeometry x="1250" y="790" width="239" height="60" as="geometry" />
        </mxCell>
        <mxCell id="dE-LeP1mxCF8OfB47Rku-47" value="" style="rounded=0;whiteSpace=wrap;html=1;fillColor=#6a00ff;fontColor=#ffffff;strokeColor=#3700CC;" parent="1" vertex="1">
          <mxGeometry x="100" y="90" width="460" height="10" as="geometry" />
        </mxCell>
        <mxCell id="dE-LeP1mxCF8OfB47Rku-48" value="" style="rounded=0;whiteSpace=wrap;html=1;fillColor=#6a00ff;fontColor=#ffffff;strokeColor=#3700CC;rotation=90;" parent="1" vertex="1">
          <mxGeometry x="-100" y="300" width="410" height="10" as="geometry" />
        </mxCell>
        <mxCell id="dE-LeP1mxCF8OfB47Rku-49" value="" style="rounded=0;whiteSpace=wrap;html=1;fillColor=#6a00ff;fontColor=#ffffff;strokeColor=#3700CC;rotation=90;" parent="1" vertex="1">
          <mxGeometry x="140" y="580" width="150" height="10" as="geometry" />
        </mxCell>
        <mxCell id="dE-LeP1mxCF8OfB47Rku-50" value="" style="rounded=0;whiteSpace=wrap;html=1;fillColor=#6a00ff;fontColor=#ffffff;strokeColor=#3700CC;rotation=0;" parent="1" vertex="1">
          <mxGeometry x="100" y="510" width="120" height="10" as="geometry" />
        </mxCell>
        <mxCell id="dE-LeP1mxCF8OfB47Rku-51" value="" style="rounded=0;whiteSpace=wrap;html=1;fillColor=#6a00ff;fontColor=#ffffff;strokeColor=#3700CC;" parent="1" vertex="1">
          <mxGeometry x="210" y="655" width="480" height="10" as="geometry" />
        </mxCell>
        <mxCell id="dE-LeP1mxCF8OfB47Rku-52" value="" style="rounded=0;whiteSpace=wrap;html=1;fillColor=#6a00ff;fontColor=#ffffff;strokeColor=#3700CC;rotation=90;" parent="1" vertex="1">
          <mxGeometry x="607.82" y="576.56" width="165.63" height="10" as="geometry" />
        </mxCell>
        <mxCell id="dE-LeP1mxCF8OfB47Rku-53" value="" style="rounded=0;whiteSpace=wrap;html=1;fillColor=#6a00ff;fontColor=#ffffff;strokeColor=#3700CC;rotation=0;" parent="1" vertex="1">
          <mxGeometry x="685" y="500" width="110" height="10" as="geometry" />
        </mxCell>
        <mxCell id="dE-LeP1mxCF8OfB47Rku-54" value="" style="rounded=0;whiteSpace=wrap;html=1;fillColor=#6a00ff;fontColor=#ffffff;strokeColor=#3700CC;rotation=90;" parent="1" vertex="1">
          <mxGeometry x="632.5" y="337.5" width="315" height="10" as="geometry" />
        </mxCell>
        <mxCell id="dE-LeP1mxCF8OfB47Rku-55" value="" style="rounded=0;whiteSpace=wrap;html=1;fillColor=#6a00ff;fontColor=#ffffff;strokeColor=#3700CC;rotation=90;" parent="1" vertex="1">
          <mxGeometry x="507.5" y="132.5" width="100" height="10" as="geometry" />
        </mxCell>
        <mxCell id="dE-LeP1mxCF8OfB47Rku-56" value="" style="rounded=0;whiteSpace=wrap;html=1;fillColor=#6a00ff;fontColor=#ffffff;strokeColor=#3700CC;rotation=0;" parent="1" vertex="1">
          <mxGeometry x="555" y="180" width="240" height="10" as="geometry" />
        </mxCell>
        <mxCell id="dE-LeP1mxCF8OfB47Rku-59" value="" style="rounded=0;whiteSpace=wrap;html=1;fillColor=#6a00ff;fontColor=#ffffff;strokeColor=#3700CC;" parent="1" vertex="1">
          <mxGeometry x="100" y="400" width="460" height="10" as="geometry" />
        </mxCell>
        <mxCell id="dE-LeP1mxCF8OfB47Rku-60" value="" style="rounded=0;whiteSpace=wrap;html=1;fillColor=#6a00ff;fontColor=#ffffff;strokeColor=#3700CC;rotation=90;" parent="1" vertex="1">
          <mxGeometry x="487.5" y="332.5" width="135" height="10" as="geometry" />
        </mxCell>
        <mxCell id="dE-LeP1mxCF8OfB47Rku-61" value="" style="rounded=0;whiteSpace=wrap;html=1;gradientColor=default;fillColor=none;movable=1;resizable=1;rotatable=1;deletable=1;editable=1;locked=0;connectable=1;shadow=0;" parent="1" vertex="1">
          <mxGeometry x="690" y="410" width="100" height="90" as="geometry" />
        </mxCell>
        <mxCell id="dE-LeP1mxCF8OfB47Rku-62" value="" style="rounded=0;whiteSpace=wrap;html=1;fillColor=#6a00ff;fontColor=#ffffff;strokeColor=#3700CC;rotation=90;" parent="1" vertex="1">
          <mxGeometry x="620" y="337.5" width="135" height="10" as="geometry" />
        </mxCell>
        <mxCell id="dE-LeP1mxCF8OfB47Rku-63" value="" style="rounded=0;whiteSpace=wrap;html=1;fillColor=#6a00ff;fontColor=#ffffff;strokeColor=#3700CC;rotation=-180;" parent="1" vertex="1">
          <mxGeometry x="555" y="270" width="135" height="10" as="geometry" />
        </mxCell>
        <mxCell id="PCOMoOvTgNtJA-MKl3Vs-1" value="" style="edgeStyle=orthogonalEdgeStyle;rounded=0;orthogonalLoop=1;jettySize=auto;html=1;" parent="1" source="PCOMoOvTgNtJA-MKl3Vs-2" target="PCOMoOvTgNtJA-MKl3Vs-3" edge="1">
          <mxGeometry relative="1" as="geometry" />
        </mxCell>
        <mxCell id="PCOMoOvTgNtJA-MKl3Vs-2" value="Player collides with wall?" style="rhombus;whiteSpace=wrap;html=1;rounded=1;spacing=10;" parent="1" vertex="1">
          <mxGeometry x="1360" y="1290" width="140" height="120" as="geometry" />
        </mxCell>
        <mxCell id="PCOMoOvTgNtJA-MKl3Vs-3" value="Prevent player to move that direction&amp;nbsp;" style="rounded=0;whiteSpace=wrap;html=1;" parent="1" vertex="1">
          <mxGeometry x="1370" y="1450" width="120" height="60" as="geometry" />
        </mxCell>
        <mxCell id="-Oy4JUIBBOaPgNIeJl-g-4" value="" style="edgeStyle=none;curved=1;rounded=0;orthogonalLoop=1;jettySize=auto;html=1;fontSize=12;startSize=8;endSize=8;" edge="1" parent="1" source="-Oy4JUIBBOaPgNIeJl-g-2" target="-Oy4JUIBBOaPgNIeJl-g-3">
          <mxGeometry relative="1" as="geometry" />
        </mxCell>
        <mxCell id="-Oy4JUIBBOaPgNIeJl-g-2" value="Did a grenade hit the cracked wall?" style="rhombus;whiteSpace=wrap;html=1;rounded=1;spacing=10;" vertex="1" parent="1">
          <mxGeometry x="1570" y="1250" width="140" height="120" as="geometry" />
        </mxCell>
        <mxCell id="-Oy4JUIBBOaPgNIeJl-g-3" value="Destroy wall that reveals shotgun!" style="whiteSpace=wrap;html=1;rounded=0;spacing=10;" vertex="1" parent="1">
          <mxGeometry x="1580" y="1420" width="120" height="60" as="geometry" />
        </mxCell>
        <mxCell id="-Oy4JUIBBOaPgNIeJl-g-8" value="" style="edgeStyle=none;curved=1;rounded=0;orthogonalLoop=1;jettySize=auto;html=1;fontSize=12;startSize=8;endSize=8;" edge="1" parent="1" source="-Oy4JUIBBOaPgNIeJl-g-5" target="-Oy4JUIBBOaPgNIeJl-g-7">
          <mxGeometry relative="1" as="geometry" />
        </mxCell>
        <mxCell id="-Oy4JUIBBOaPgNIeJl-g-5" value="Player interacts with shotgun." style="rhombus;whiteSpace=wrap;html=1;rounded=1;spacing=10;" vertex="1" parent="1">
          <mxGeometry x="1740" y="1250" width="140" height="120" as="geometry" />
        </mxCell>
        <mxCell id="-Oy4JUIBBOaPgNIeJl-g-7" value="Add shotgun to arsenal!" style="whiteSpace=wrap;html=1;rounded=0;spacing=10;" vertex="1" parent="1">
          <mxGeometry x="1750" y="1520" width="120" height="60" as="geometry" />
        </mxCell>
      </root>
    </mxGraphModel>
  </diagram>
</mxfile>
